<svg width="10" height="11" viewBox="0 0 10 11" fill="none" xmlns="http://www.w3.org/2000/svg">
<path d="M8.52229 1.45358C7.58198 0.516778 6.33108 0.000534573 4.99977 0C3.67144 0 2.41855 0.515785 1.47206 1.45235C0.52388 2.39053 0.00122188 3.6373 0 4.95846V4.95998V4.9609C0.000152735 5.76054 0.210239 6.56721 0.60903 7.30354L0.0136698 10.0096L2.75091 9.387C3.44417 9.73638 4.21769 9.92058 4.99786 9.92088H4.99985C6.32795 9.92088 7.58083 9.40502 8.52748 8.46838C9.4765 7.52944 9.99939 6.28427 10 4.96227C10.0004 3.6496 9.47566 2.40351 8.52229 1.45358ZM4.99977 9.13965H4.99801C4.2975 9.13934 3.60339 8.96347 2.99085 8.63089L2.86141 8.56063L1.04127 8.97462L1.43662 7.17784L1.36041 7.04642C0.981473 6.39294 0.781238 5.67157 0.781238 4.96006C0.782689 2.65705 2.67492 0.781238 4.99962 0.781238C6.12268 0.781696 7.17792 1.21707 7.97092 2.00701C8.77591 2.80917 9.21907 3.85861 9.21869 4.96205C9.21777 7.26559 7.32516 9.13965 4.99977 9.13965Z" fill="#FF7A00"/>
<path d="M3.63929 2.77344H3.42011C3.34382 2.77344 3.21995 2.802 3.11518 2.91602C3.01032 3.03011 2.71486 3.30587 2.71486 3.86671C2.71486 4.42755 3.12472 4.96946 3.18185 5.0456C3.23904 5.12166 3.97301 6.30932 5.13548 6.76623C6.1016 7.14593 6.29824 7.0704 6.50787 7.05138C6.71758 7.03244 7.18456 6.7757 7.27987 6.50956C7.37518 6.24342 7.37518 6.01523 7.34662 5.96758C7.31798 5.92008 7.24169 5.89159 7.12737 5.83462C7.01297 5.77758 6.45243 5.49716 6.34758 5.45905C6.24273 5.42109 6.16651 5.40208 6.09022 5.51625C6.01393 5.63019 5.78933 5.89381 5.72259 5.96987C5.65592 6.04601 5.58917 6.05555 5.47478 5.99851C5.36038 5.94131 4.9958 5.81881 4.5589 5.43056C4.21884 5.12838 3.98286 4.74303 3.91612 4.62894C3.84945 4.51492 3.90902 4.45321 3.96637 4.39632C4.01776 4.34531 4.08718 4.27551 4.14438 4.20899C4.2015 4.1424 4.21777 4.0949 4.25595 4.01884C4.29406 3.94277 4.27497 3.87618 4.24641 3.81921C4.21777 3.76217 3.99829 3.1985 3.89657 2.97306H3.89664C3.81096 2.78321 3.72077 2.7768 3.63929 2.77344Z" fill="#FF7A00"/>
</svg>
