<svg width="16" height="16" viewBox="0 0 16 16" fill="none" xmlns="http://www.w3.org/2000/svg">
<rect width="16" height="16" fill="#FF7A00"/>
<path d="M8.00207 5.12427C6.41397 5.12427 5.12828 6.41136 5.12828 7.99806C5.12828 9.58616 6.41537 10.8719 8.00207 10.8719C9.59017 10.8719 10.8759 9.58476 10.8759 7.99806C10.8759 6.40996 9.58877 5.12427 8.00207 5.12427ZM8.00207 9.86337C6.97118 9.86337 6.13677 9.02848 6.13677 7.99806C6.13677 6.96764 6.97165 6.13276 8.00207 6.13276C9.03249 6.13276 9.86738 6.96764 9.86738 7.99806C9.86784 9.02848 9.03296 9.86337 8.00207 9.86337Z" fill="#E7E7E7"/>
<path d="M10.3093 2.43508C9.27892 2.38702 6.72666 2.38935 5.69531 2.43508C4.78902 2.47755 3.98961 2.69642 3.34513 3.3409C2.26804 4.41799 2.40571 5.86935 2.40571 7.99787C2.40571 10.1763 2.28437 11.5941 3.34513 12.6548C4.42642 13.7357 5.89878 13.5942 8.00209 13.5942C10.16 13.5942 10.9048 13.5956 11.6678 13.3002C12.7053 12.8975 13.4883 11.9702 13.5649 10.3046C13.6134 9.27376 13.6106 6.72197 13.5649 5.69062C13.4725 3.72451 12.4173 2.53215 10.3093 2.43508ZM11.9404 11.9422C11.2343 12.6483 10.2547 12.5853 7.98856 12.5853C5.65517 12.5853 4.71949 12.6198 4.03674 11.9352C3.25039 11.1526 3.39273 9.89584 3.39273 7.9904C3.39273 5.41201 3.12812 3.55511 5.71584 3.42257C6.31039 3.40157 6.48539 3.39457 7.98202 3.39457L8.00302 3.40857C10.4899 3.40857 12.4411 3.14816 12.5582 5.73542C12.5849 6.32576 12.5909 6.5031 12.5909 7.9974C12.5905 10.3037 12.6343 11.245 11.9404 11.9422Z" fill="#E7E7E7"/>
<path d="M10.9897 5.68245C11.3606 5.68245 11.6613 5.38179 11.6613 5.0109C11.6613 4.64002 11.3606 4.33936 10.9897 4.33936C10.6188 4.33936 10.3182 4.64002 10.3182 5.0109C10.3182 5.38179 10.6188 5.68245 10.9897 5.68245Z" fill="#E7E7E7"/>
</svg>
