<svg width="10" height="17" viewBox="0 0 10 17" fill="none" xmlns="http://www.w3.org/2000/svg">
<path d="M9.54662 9.3001L2.11343 16.7332C1.94151 16.9052 1.71201 17 1.4673 17C1.22259 17 0.993093 16.9052 0.821172 16.7332L0.273769 16.1859C-0.0824294 15.8293 -0.0824294 15.2497 0.273769 14.8936L6.5156 8.6518L0.266844 2.40305C0.094923 2.23099 0 2.00163 0 1.75705C0 1.51221 0.094923 1.28285 0.266844 1.11065L0.814246 0.563522C0.986303 0.391466 1.21567 0.29668 1.46037 0.29668C1.70508 0.29668 1.93458 0.391466 2.1065 0.563522L9.54662 8.00337C9.71895 8.17597 9.8136 8.40641 9.81305 8.6514C9.8136 8.89733 9.71895 9.12764 9.54662 9.3001Z" fill="#FF7A00"/>
</svg>
