<svg width="15" height="20" viewBox="0 0 15 20" fill="none" xmlns="http://www.w3.org/2000/svg">
<path d="M14.9956 7.15106C14.891 3.86602 12.4293 0.902206 9.21011 0.196707C8.81454 0.10979 8.40978 0.0645522 8.0091 0C7.67785 0 7.3471 0 7.01584 0C6.59679 0.0696351 6.16855 0.105216 5.76022 0.215005C2.96775 0.963201 1.10627 2.71526 0.307475 5.48643C-0.349938 7.76761 0.05329 9.92935 1.4554 11.8497C3.28625 14.3565 5.16916 16.8253 7.03013 19.3108L7.13885 19.4704C7.14855 19.4866 7.15825 19.5029 7.16845 19.5187C7.16948 19.5187 7.1705 19.5187 7.17203 19.5187L7.50022 20L7.85547 19.5187C7.85598 19.5187 7.85598 19.5187 7.85649 19.5187C7.8963 19.4643 7.93663 19.4094 7.97644 19.355L8.01013 19.3097C8.28881 18.929 8.56699 18.5483 8.84925 18.1702C10.3943 16.105 11.9418 14.0424 13.4864 11.9777C14.5567 10.5454 15.0523 8.93413 14.9956 7.15106ZM7.49308 9.94917C6.13436 9.94206 5.02574 8.82281 5.02931 7.46162C5.03288 6.09637 6.15784 4.98679 7.53187 4.9939C8.8911 5.00102 9.99972 6.11975 9.99564 7.48094C9.99206 8.84619 8.86711 9.95629 7.49308 9.94917Z" fill="#FF7A00"/>
</svg>
