<svg width="20" height="20" viewBox="0 0 20 20" fill="none" xmlns="http://www.w3.org/2000/svg">
<path d="M8.80753 0C3.95119 0 0 3.95119 0 8.80753C0 13.6641 3.95119 17.6151 8.80753 17.6151C13.6641 17.6151 17.6151 13.6641 17.6151 8.80753C17.6151 3.95119 13.6641 0 8.80753 0ZM8.80753 15.9891C4.84767 15.9891 1.62601 12.7674 1.62601 8.80757C1.62601 4.84771 4.84767 1.62601 8.80753 1.62601C12.7674 1.62601 15.989 4.84767 15.989 8.80753C15.989 12.7674 12.7674 15.9891 8.80753 15.9891Z" fill="white"/>
<path d="M19.7619 18.6123L15.1007 13.9511C14.7831 13.6335 14.2687 13.6335 13.9511 13.9511C13.6335 14.2684 13.6335 14.7834 13.9511 15.1007L18.6123 19.7619C18.7711 19.9207 18.979 20.0001 19.1871 20.0001C19.395 20.0001 19.6031 19.9207 19.7619 19.7619C20.0795 19.4446 20.0795 18.9297 19.7619 18.6123Z" fill="white"/>
</svg>
