<svg width="19" height="25" viewBox="0 0 19 25" fill="none" xmlns="http://www.w3.org/2000/svg">
<path d="M18.1154 8.67496C17.989 4.68987 15.0151 1.09447 11.1262 0.238625C10.6483 0.133186 10.1594 0.0783083 9.67534 0C9.27516 0 8.87561 0 8.47543 0C7.9692 0.0844744 7.45188 0.127637 6.95859 0.260823C3.58517 1.16846 1.33642 3.29388 0.371443 6.65559C-0.42274 9.4229 0.0643766 12.0453 1.75818 14.3748C3.96993 17.4159 6.24457 20.4107 8.4927 23.4259L8.62403 23.6195C8.63575 23.6393 8.64746 23.659 8.6598 23.6781C8.66103 23.6781 8.66226 23.6781 8.66411 23.6781L9.06059 24.262L9.48974 23.6781C9.49036 23.6781 9.49036 23.6781 9.49097 23.6781C9.53907 23.6121 9.58778 23.5455 9.63588 23.4796L9.67657 23.4247C10.0132 22.9628 10.3493 22.501 10.6903 22.0423C12.5567 19.537 14.4262 17.0348 16.2921 14.5302C17.5851 12.7926 18.1838 10.838 18.1154 8.67496ZM9.05195 12.0694C7.41056 12.0607 6.0713 10.703 6.07562 9.05171C6.07994 7.39551 7.43893 6.04947 9.09882 6.05811C10.7408 6.06674 12.0801 7.42388 12.0752 9.07514C12.0708 10.7313 10.7118 12.078 9.05195 12.0694Z" fill="white"/>
</svg>
